# xmcd CD database file
#
# Track frame offsets:
#	150
#	18654
#	36490
#	65985
#	80676
#	94116
#	100861
#	111195
#	123859
#	129175
#	149127
#	158931
#	169018
#	184213
#	202476
#	210687
#	221737
#
# Disc length: 3078 seconds
#
# Revision: 4
# Processed by: cddbd v1.5.2PL0 Copyright (c) Steve Scherf et al.
# Submitted via: CDex 1.51
#
DISCID=0f0c0411
DTITLE=Rachmaninoff - Piano Works - Transcriptions  (Garrick Ohlsson, piano)
DYEAR=2008
DGENRE=Classique
TTITLE0=Scherzo  (from Mendelssohn 'A Midsummer Night's Dream')
TTITLE1=Lullaby  (Tchaikovsky)
TTITLE2=Liebesfreud  (Kreisler)
TTITLE3=Suite from Partita in E major for violin solo (J.S. Bach) - I. Prelude
TTITLE4=Suite from Partita in E major for violin solo (J.S. Bach) - II. Gavotte
TTITLE5=Suite from Partita in E major for violin solo (J.S. Bach) - III. Gigue
TTITLE6=Wohin  (Schubert)
TTITLE7=Minuet  (from Bizet 'L'Arlésienne, Suite N°1')
TTITLE8=Flight on the Bumblebee  (Rimsky-Korsakov)
TTITLE9=Liebesleid  (Kreisler)
TTITLE10=Lilacs  (Racmaninoff)
TTITLE11=Daisies  (Rachmaninoff)
TTITLE12=Humoresque Op.10  N°5  (Revised version)
TTITLE13=Mélodie Op.3  N°3  (Revised version)
TTITLE14=Hopak  (Mussorgsky)
TTITLE15=Prelude Op.posth. (1917)
TTITLE16=Fragments  (1917)
EXTD=YEAR: 2008
EXTT0=
EXTT1=
EXTT2=
EXTT3=
EXTT4=
EXTT5=
EXTT6=
EXTT7=
EXTT8=
EXTT9=
EXTT10=
EXTT11=
EXTT12=
EXTT13=
EXTT14=
EXTT15=
EXTT16=
PLAYORDER=
